<?xml version="1.0" encoding="UTF-8" standalone="no"?>
<!-- Created with Inkscape (http://www.inkscape.org/) -->

<svg
   width="48.000038mm"
   height="47.969532mm"
   viewBox="0 0 48.000038 47.969532"
   version="1.1"
   id="svg5"
   xml:space="preserve"
   inkscape:version="1.2.2 (732a01da63, 2022-12-09)"
   sodipodi:docname="erikpersson-logo.svg"
   xmlns:inkscape="http://www.inkscape.org/namespaces/inkscape"
   xmlns:sodipodi="http://sodipodi.sourceforge.net/DTD/sodipodi-0.dtd"
   xmlns="http://www.w3.org/2000/svg"
   xmlns:svg="http://www.w3.org/2000/svg"><sodipodi:namedview
     id="namedview7"
     pagecolor="#17ffff"
     bordercolor="#000000"
     borderopacity="0.25"
     inkscape:showpageshadow="2"
     inkscape:pageopacity="0"
     inkscape:pagecheckerboard="0"
     inkscape:deskcolor="#d1d1d1"
     inkscape:document-units="mm"
     showgrid="false"
     inkscape:zoom="2.0989208"
     inkscape:cx="35.732649"
     inkscape:cy="141.26307"
     inkscape:window-width="1920"
     inkscape:window-height="991"
     inkscape:window-x="316"
     inkscape:window-y="1431"
     inkscape:window-maximized="1"
     inkscape:current-layer="layer1" /><defs
     id="defs2" /><g
     inkscape:label="Layer 1"
     inkscape:groupmode="layer"
     id="layer1"
     transform="translate(-57.91094,-78.371766)"><rect
       style="fill:#ffffff;stroke-width:0.499999"
       id="rect286"
       width="35.674088"
       height="26.976166"
       x="64.71801"
       y="89.464767" /><path
       style="fill:#262a35;stroke-width:0.155684;fill-opacity:1"
       d="m 75.40107,126.2628 c 0.107032,-0.0432 0.282172,-0.0432 0.38921,0 0.107032,0.0432 0.01948,0.0785 -0.194605,0.0785 -0.21407,0 -0.301637,-0.0354 -0.194605,-0.0785 z m -6.829963,-0.27895 c -0.04078,-0.0408 -1.19165,-0.11732 -2.557523,-0.1701 -1.365872,-0.0528 -3.066798,-0.11904 -3.77984,-0.14722 -0.713036,-0.0282 -1.32955,-0.0844 -1.370027,-0.12483 -0.04048,-0.0405 -0.332799,-0.0149 -0.649606,0.0567 -0.316812,0.0717 -0.733654,0.0909 -0.926311,0.0428 -0.303597,-0.0758 -0.350287,-0.18902 -0.350287,-0.84905 0,-0.41884 -0.07006,-0.76154 -0.155682,-0.76154 -0.08563,0 -0.155686,0.11676 -0.155686,0.25947 0,0.14271 -0.04334,0.21614 -0.09631,0.16317 -0.164493,-0.1645 -0.195669,-2.29085 -0.03359,-2.29085 0.08298,0 0.110117,-0.12843 0.06029,-0.2854 -0.04982,-0.15698 0.01755,-0.59189 0.149706,-0.96648 0.203808,-0.57765 0.216259,-0.99999 0.08197,-2.78131 -0.08708,-1.15514 -0.09922,-2.1389 -0.02695,-2.18613 0.230533,-0.15071 0.323496,-1.14813 0.189374,-2.03191 l -0.129945,-0.85626 -0.03171,0.70057 c -0.01742,0.38532 -0.0672,0.61257 -0.110563,0.50501 -0.04337,-0.10757 -0.134985,-0.16089 -0.203596,-0.11848 -0.219906,0.1359 -0.513484,-0.36626 -0.384088,-0.65699 0.17517,-0.39358 0.217862,-2.67298 0.05199,-2.7755 -0.24291,-0.15013 -0.159097,-0.57568 0.09424,-0.47846 0.158843,0.0609 0.233526,-0.008 0.233526,-0.21687 0,-0.18226 -0.105168,-0.30648 -0.259473,-0.30648 -0.142711,0 -0.213376,-0.0461 -0.157035,-0.10244 0.05634,-0.0563 0.02959,-0.19022 -0.05945,-0.29751 -0.112242,-0.13525 -0.11149,-0.22622 0.0025,-0.29664 0.09039,-0.0558 0.211128,0.0204 0.26831,0.16936 0.09573,0.24947 0.113277,0.24717 0.221484,-0.0291 0.09586,-0.2447 0.12155,-0.21391 0.139402,0.16707 0.01204,0.25688 0.07899,0.60716 0.148785,0.77842 0.118512,0.29076 0.13391,0.28479 0.232828,-0.0903 0.05825,-0.22094 0.0838,-0.71134 0.05678,-1.08979 -0.04272,-0.59818 -0.09556,-0.68809 -0.404274,-0.68809 -0.195312,0 -0.416728,-0.0991 -0.492037,-0.22016 -0.150929,-0.24268 -0.04221,-1.25579 0.158413,-1.47614 0.06984,-0.0767 0.08698,-0.33943 0.03811,-0.58382 -0.0556,-0.27801 -0.02331,-0.44434 0.08628,-0.44434 0.09633,0 0.175145,-0.10981 0.175145,-0.24402 0,-0.17846 -0.09411,-0.21755 -0.350289,-0.14548 -0.192659,0.0542 -0.27512,0.0414 -0.183249,-0.0284 0.318125,-0.2418 0.387372,-0.71198 0.156705,-1.06403 -0.373611,-0.5702 -0.31078,-3.11071 0.07693,-3.11071 0.254549,0 0.373122,-0.44845 0.218513,-0.82643 -0.09646,-0.235822 -0.121106,-0.230803 -0.23575,0.048 -0.127609,0.31034 -0.140274,0.15508 -0.228593,-2.802308 -0.0179,-0.599385 0.01299,-0.91535 0.06864,-0.702145 0.196589,0.753166 0.296316,0.05055 0.221387,-1.559771 -0.04172,-0.896598 -0.07228,-1.770294 -0.06791,-1.941545 0.0044,-0.171251 0.01207,-0.556572 0.0171,-0.856261 0.0072,-0.4308 0.03525,-0.480214 0.133735,-0.236006 0.109049,0.270398 0.147505,0.239407 0.308587,-0.248686 0.206573,-0.625917 0.08921,-1.132065 -0.233745,-1.008134 -0.312522,0.119924 -0.271226,-0.520526 0.05695,-0.883152 0.249496,-0.275688 0.250691,-0.313164 0.01547,-0.485157 -0.272284,-0.1991 -0.419762,-0.847776 -0.253408,-1.114609 0.09162,-0.146944 0.145767,-1.438165 0.100958,-2.407289 -0.0099,-0.214064 0.02094,-0.864023 0.06853,-1.444355 0.06084,-0.741916 0.02251,-1.178535 -0.129115,-1.470792 -0.155231,-0.299207 -0.16895,-0.471906 -0.04897,-0.616473 0.09167,-0.11045 0.126862,-0.304555 0.07821,-0.431346 -0.04865,-0.126785 -0.01669,-0.274882 0.07104,-0.329098 0.08772,-0.05419 0.118485,-0.205456 0.06836,-0.336083 -0.05013,-0.130633 -0.02045,-0.322685 0.06594,-0.426786 0.211637,-0.255006 0.277321,-1.548839 0.08182,-1.611605 -0.204115,-0.06553 -0.44142,-0.494595 -0.333329,-0.602686 0.04643,-0.04643 0.407198,-0.120807 0.801704,-0.165273 0.610729,-0.06884 0.728694,-0.03719 0.794125,0.212864 0.06877,0.262855 0.235459,0.293128 1.586739,0.288203 0.830448,-0.0029 1.627033,-0.06097 1.770187,-0.128756 0.148803,-0.07046 0.410234,-0.04301 0.610412,0.06414 0.284349,0.152181 0.38169,0.144602 0.518137,-0.04031 0.285773,-0.387328 3.243974,-0.610459 3.585265,-0.270434 0.08135,0.08105 0.301537,0.147356 0.489316,0.147356 0.18778,0 0.381744,0.10509 0.431029,0.233528 0.04931,0.128439 0.214411,0.232452 0.366945,0.23114 0.231534,-0.0018 0.239513,-0.0263 0.04831,-0.14722 -0.426615,-0.269799 -0.08236,-0.296412 1.590193,-0.122955 1.20533,0.125008 1.76618,0.125944 2.021662,0.0035 0.719639,-0.34525 0.935856,-0.36192 1.13644,-0.0876 0.296835,0.405945 2.53704,0.506281 2.815046,0.126085 0.107591,-0.147138 0.268892,-0.222237 0.358443,-0.166891 0.08956,0.05537 0.308086,0.02289 0.485621,-0.07213 0.177535,-0.09501 0.599332,-0.17657 0.937321,-0.18123 0.337989,-0.0047 0.614525,-0.06909 0.614525,-0.143155 0,-0.07407 0.247332,0.0041 0.549629,0.174035 0.603362,0.338889 1.090013,0.3969 1.243683,0.14825 0.05655,-0.0915 0.320484,-0.118942 0.614095,-0.06386 0.306768,0.05755 0.557313,0.02801 0.619785,-0.07307 0.161919,-0.26199 0.557825,-0.206315 0.454147,0.06386 -0.115911,0.302061 0.160066,0.302061 0.410752,0 0.119736,-0.144267 0.461579,-0.233523 0.894385,-0.233523 0.605087,0 0.67416,0.03183 0.506769,0.233523 -0.165102,0.198936 -0.123166,0.233528 0.28312,0.233528 0.501814,0 0.790324,-0.22938 0.457348,-0.36362 -0.107567,-0.04337 0.417431,-0.08438 1.16666,-0.09114 0.74923,-0.0068 1.362231,0.04919 1.362231,0.124325 0,0.07515 0.419266,0.115111 0.931701,0.08883 0.512436,-0.0263 0.971949,0.0173 1.021135,0.09691 0.121436,0.196483 0.849471,0.184532 0.849471,-0.01395 0,-0.09149 0.164779,-0.117294 0.389257,-0.06095 0.214088,0.05372 0.848571,0.0064 1.409969,-0.10519 0.895614,-0.178018 1.105494,-0.171463 1.71247,0.05349 0.435965,0.161577 0.691765,0.194729 0.691765,0.08964 0,-0.205349 2.888157,-0.01942 3.328076,0.214252 0.200125,0.106297 0.325297,0.101748 0.397101,-0.01442 0.05766,-0.09331 0.451588,-0.163225 0.875379,-0.15537 0.423791,0.0079 0.840588,-0.0041 0.926218,-0.02683 0.16974,-0.04484 0.61314,0.09754 1.06737,0.34269 0.22376,0.12076 0.37177,0.07815 0.65594,-0.188821 0.33449,-0.314235 0.46058,-0.334552 1.42357,-0.229374 0.58112,0.06347 1.28446,0.113263 1.56298,0.110657 0.7549,-0.0071 0.84576,0.30279 0.73474,2.505701 -0.0528,1.047454 -0.10352,2.079603 -0.11273,2.293673 -0.009,0.214064 0.0253,1.006141 0.0766,1.760173 0.0799,1.173538 0.0615,1.344548 -0.12771,1.187489 -0.14494,-0.120294 -0.22108,-0.126467 -0.22108,-0.01795 0,0.09106 0.0701,0.208856 0.15568,0.261778 0.20606,0.12735 0.20127,1.011943 -0.005,1.011943 -0.10364,0 -0.11062,0.09723 -0.0195,0.272446 0.0779,0.149845 0.0853,0.412559 0.0164,0.583816 -0.19237,0.47849 -0.17272,2.947901 0.0251,3.145655 0.20576,0.205773 0.20746,1.726692 0.006,5.027736 -0.10815,1.768758 -0.22807,20.632923 -0.18037,28.373363 0.002,0.37562 -0.0594,0.43064 -0.50333,0.44862 l -0.50598,0.0205 0.54489,0.1147 c 0.46061,0.097 0.4847,0.12068 0.15569,0.15341 -0.35807,0.0356 -1.09684,0.0405 -1.99416,0.0132 -0.20734,-0.006 -0.31712,-0.0795 -0.2594,-0.17286 0.0926,-0.14988 -0.34733,-0.10533 -1.00064,0.10131 -0.1201,0.038 -0.4434,-0.005 -0.71845,-0.096 -0.33146,-0.10939 -0.88777,-0.11811 -1.649839,-0.0258 -0.632365,0.0766 -1.184783,0.0893 -1.227596,0.0284 -0.04284,-0.061 -0.603274,-0.0502 -1.245472,0.0239 -1.232091,0.14213 -2.179569,0.0603 -2.179569,-0.18825 0,-0.0817 -0.11258,-0.14864 -0.250186,-0.14864 -0.149798,0 -0.216812,0.087 -0.167015,0.21673 0.06697,0.17451 -0.09973,0.2042 -0.855843,0.15246 -0.516455,-0.0354 -1.067207,-0.13286 -1.223901,-0.21672 -0.412035,-0.22052 -0.568311,-0.19142 -0.90334,0.16819 -0.253976,0.27262 -0.37736,0.29805 -0.823405,0.16973 -0.288563,-0.083 -0.437089,-0.15726 -0.330058,-0.16498 0.107032,-0.008 0.194606,-0.0939 0.194606,-0.19141 0,-0.12653 -0.234288,-0.14047 -0.817339,-0.0487 -1.299029,0.2046 -2.773981,0.11535 -2.990646,-0.18096 -0.159577,-0.21823 -0.23108,-0.22385 -0.523668,-0.0411 -0.186373,0.11639 -0.33886,0.26483 -0.33886,0.32986 0,0.065 -0.105084,0.11823 -0.233528,0.11823 -0.128439,0 -0.233523,-0.07 -0.233523,-0.15568 0,-0.2475 -0.623051,-0.18034 -0.722121,0.0778 -0.04931,0.12844 -0.226368,0.23352 -0.393512,0.23352 -0.188627,0 -0.262102,-0.0676 -0.193717,-0.17827 0.08172,-0.13223 -0.348162,-0.15092 -1.664414,-0.0724 -1.584668,0.0946 -2.299234,0.0997 -4.991467,0.0359 -0.406333,-0.01 -0.646234,-0.071 -0.544898,-0.13937 0.313758,-0.21172 -1.818879,0.0687 -2.33814,0.30739 -0.362408,0.16663 -0.821863,0.20461 -1.712517,0.14158 -1.456323,-0.10306 -3.61182,-0.10706 -3.952951,-0.007 -0.134634,0.0394 -0.278142,0.0382 -0.318907,-0.002 z m -0.479273,-13.95329 c -0.01524,-1.07592 0.165668,-1.35418 0.922582,-1.41894 0.758173,-0.0649 1.185077,-0.6511 1.19388,-1.63944 0.01806,-2.0281 -0.516237,-2.57898 -2.426525,-2.50188 l -1.137916,0.046 v 3.16646 c 0,3.46469 -0.0085,3.43401 0.927253,3.32476 l 0.533695,-0.0623 -0.01295,-0.91459 z m 0.03101,-3.33476 c 0,-0.73665 0.04119,-0.85625 0.295017,-0.85625 0.230746,0 0.308016,0.13635 0.3547,0.62589 0.06661,0.69852 -0.0848,1.08662 -0.423926,1.08662 -0.169898,0 -0.225791,-0.21197 -0.225791,-0.85626 z m 4.658838,4.24239 c 0.165026,-0.15569 0.220548,-0.15569 0.277636,0 0.04401,0.12006 0.368168,0.1946 0.846194,0.1946 h 0.774843 l -0.04831,-0.58381 -0.04831,-0.58382 -0.893838,-0.0467 c -0.711071,-0.0371 -0.92853,-0.11146 -1.063482,-0.36362 -0.0933,-0.17434 -0.129539,-0.35707 -0.08053,-0.40608 0.04901,-0.049 0.01595,-0.17723 -0.07343,-0.28494 -0.195376,-0.23542 0.265203,-0.42046 1.099334,-0.44168 0.530059,-0.0135 0.546228,-0.0325 0.593819,-0.69702 l 0.0489,-0.68315 -0.61456,0.0983 c -0.7467,0.1194 -1.005306,-0.1194 -0.933985,-0.86245 0.04778,-0.49774 0.07452,-0.51673 0.750118,-0.53249 1.126689,-0.0263 1.113586,-0.0193 1.060734,-0.56746 l -0.04878,-0.50598 -1.596312,-0.0444 -1.596312,-0.0444 0.0079,3.27481 0.0079,3.27481 h 0.662121 c 0.364167,0 0.754949,-0.0876 0.8684,-0.1946 z m 4.315353,-0.7395 c 0.0439,-1.67924 0.04954,-1.71252 0.292846,-1.71252 0.302308,0 0.522262,0.57146 0.450617,1.17072 -0.03054,0.25517 -0.01483,0.69164 0.03478,0.96993 0.08765,0.49127 0.112869,0.50597 0.868024,0.50597 0.677208,0 0.764076,-0.0352 0.671989,-0.27244 -0.05813,-0.14985 -0.146349,-0.75097 -0.19597,-1.33583 -0.05078,-0.59826 -0.18675,-1.15991 -0.310922,-1.28409 -0.190498,-0.19049 -0.174088,-0.28619 0.119841,-0.69898 0.279754,-0.39287 0.327904,-0.63085 0.269687,-1.33286 -0.107721,-1.299 -0.410852,-1.52337 -2.149601,-1.59109 l -1.396999,-0.0544 -0.01289,1.5334 c -0.01977,2.35274 -0.02012,2.85036 -0.0029,3.99438 l 0.01589,1.05982 0.661657,-0.0479 0.661656,-0.0479 z m -0.0286,-3.12378 c -0.194169,-0.31417 0.07848,-1.19759 0.395165,-1.2804 0.24508,-0.0641 0.322467,0.0222 0.402485,0.44872 0.05449,0.29044 0.05855,0.63368 0.009,0.76277 -0.103266,0.2691 -0.65386,0.31614 -0.806653,0.0689 z m 6.404842,3.52856 c 0.47516,-0.47516 0.529323,-0.61799 0.529323,-1.39574 0,-0.74956 -0.06603,-0.94162 -0.489623,-1.42407 -0.269298,-0.30671 -0.724516,-0.65579 -1.011596,-0.77574 -0.635054,-0.26535 -0.976556,-0.8869 -0.68218,-1.24161 0.319237,-0.38465 0.626493,-0.27633 0.870125,0.30676 0.191163,0.45752 0.305491,0.54489 0.713001,0.54489 0.471664,0 0.482732,-0.016 0.392964,-0.56919 -0.05078,-0.31306 -0.283249,-0.76843 -0.516548,-1.01195 -0.34974,-0.36505 -0.554148,-0.44275 -1.164789,-0.44275 -1.049967,0 -1.5545,0.4576 -1.640808,1.48816 -0.07788,0.92986 0.150327,1.41574 0.8851,1.88452 1.068766,0.68187 1.398888,1.00801 1.398888,1.38204 0,0.56244 -0.533124,0.78383 -0.930537,0.38641 -0.173216,-0.17321 -0.314935,-0.45504 -0.314935,-0.6263 0,-0.17125 -0.08757,-0.31232 -0.194605,-0.31349 -0.107032,-0.001 -0.352235,-0.0444 -0.544892,-0.096 -0.327021,-0.0876 -0.350287,-0.0451 -0.350287,0.64043 0,0.62751 0.07698,0.81128 0.529323,1.26363 0.451817,0.45181 0.636472,0.52932 1.261041,0.52932 0.624563,0 0.809218,-0.0775 1.261035,-0.52932 z m 3.86632,0.37752 c 0.2196,-0.0835 0.543321,-0.38124 0.719379,-0.66166 0.630176,-1.00373 0.107668,-2.87086 -0.87848,-3.13914 -0.506516,-0.1378 -1.154003,-0.71095 -1.154003,-1.02152 0,-0.37558 0.365332,-0.65976 0.688664,-0.53568 0.143596,0.0551 0.301349,0.30151 0.350564,0.54758 0.07733,0.38668 0.160771,0.44739 0.614907,0.44739 0.35267,0 0.525433,-0.0734 0.525433,-0.22339 0,-0.38545 -0.318819,-1.08574 -0.660244,-1.45021 -0.62318,-0.66525 -2.453227,-0.32709 -2.673734,0.49407 -0.156723,0.58362 -0.09513,1.49849 0.130221,1.93427 0.121707,0.23536 0.568052,0.61666 0.991885,0.84733 0.423832,0.23068 0.857509,0.52414 0.963729,0.65212 0.229586,0.27664 0.09649,0.94585 -0.211634,1.0641 -0.33806,0.12972 -0.875479,-0.33578 -0.875479,-0.75834 0,-0.20921 -0.08757,-0.38133 -0.194605,-0.3825 -0.107032,-0.001 -0.352235,-0.0444 -0.544892,-0.096 -0.328569,-0.088 -0.349981,-0.0469 -0.345339,0.66378 0.0029,0.41671 0.0903,0.86596 0.194605,0.99832 0.560497,0.71127 1.481478,0.95312 2.359023,0.61948 z m 4.758562,-0.0491 c 0.529064,-0.26693 0.759168,-1.03304 0.769629,-2.56243 0.0076,-1.11617 -0.02689,-1.28675 -0.263661,-1.30244 -0.259471,-0.0172 -0.259471,-0.0215 0,-0.0893 0.197712,-0.0517 0.271864,-0.22822 0.270322,-0.6436 -0.0047,-1.30506 -0.467222,-1.74002 -1.849664,-1.74002 -1.101629,0 -1.515941,0.40695 -1.624608,1.59576 -0.05749,0.6287 -0.02724,0.89589 0.101524,0.89756 0.119689,0.002 0.109956,0.0489 -0.02801,0.13632 -0.163573,0.10364 -0.191322,0.44636 -0.122696,1.51553 0.119612,1.86364 0.0913,1.76966 0.632465,2.09966 0.5509,0.33594 1.54635,0.37968 2.114708,0.0929 z m -1.001935,-0.53182 c -0.08449,-0.22188 -0.06661,-0.23976 0.08715,-0.0871 0.106396,0.1056 0.154228,0.23123 0.106296,0.27916 -0.04795,0.048 -0.134987,-0.0385 -0.193446,-0.19201 z m -0.391658,-0.58141 c -0.145073,-0.17481 -0.180113,-0.71549 -0.129798,-2.00313 0.07394,-1.8922 0.139283,-2.13161 0.581815,-2.13161 0.314565,0 0.474524,0.29294 0.474524,0.869 0,0.20706 0.08757,0.37754 0.194606,0.37886 0.150027,0.002 0.151533,0.0298 0.0065,0.1219 -0.117953,0.075 -0.205002,0.63992 -0.233529,1.51553 -0.04166,1.27967 -0.07256,1.39989 -0.370463,1.44245 -0.178748,0.0255 -0.414412,-0.0613 -0.523709,-0.193 z m 4.385239,-0.3594 c 0.04095,-1.5508 0.05963,-1.63934 0.254658,-1.20655 0.115764,0.25687 0.368434,0.99248 0.561497,1.63467 l 0.351017,1.16763 0.645057,0.0479 0.645052,0.0479 v -1.62451 -1.62451 l -0.739498,0.0669 c -0.711547,0.0644 -0.724792,0.0583 -0.350439,-0.1621 l 0.389057,-0.22906 -0.4522,-0.1135 c -0.348933,-0.0876 -0.50478,-0.046 -0.682451,0.18191 -0.1982,0.25429 -0.217176,0.25749 -0.136346,0.023 0.05166,-0.14985 0.02107,-0.27245 -0.06801,-0.27245 -0.08906,0 -0.05184,-0.11009 0.08272,-0.24465 0.134558,-0.13455 0.244649,-0.40433 0.244649,-0.5995 0,-0.48666 -0.315035,-1.35153 -0.459725,-1.26211 -0.06492,0.0401 -0.08496,-0.10007 -0.04454,-0.31155 0.07016,-0.36699 0.03842,-0.3845 -0.697084,-0.3845 h -0.770583 l 0.0053,3.1526 c 0.0035,2.02099 0.06377,3.19365 0.168621,3.26697 0.08996,0.0629 0.353859,0.11545 0.586428,0.11677 l 0.422868,0.002 0.04419,-1.6736 z m -0.345027,-1.90713 c 0,-0.0856 0.07419,-0.15568 0.164873,-0.15568 0.09068,0 0.121578,0.07 0.06866,0.15568 -0.0529,0.0856 -0.127115,0.15568 -0.164873,0.15568 -0.03778,0 -0.06866,-0.0701 -0.06866,-0.15568 z m 0.464098,-1.32688 c -0.164526,-0.19824 -0.154894,-0.22102 0.05878,-0.13903 0.140554,0.054 0.255547,0.16063 0.255547,0.23709 0,0.20021 -0.09012,0.17209 -0.314323,-0.0981 z m -36.427042,3.35995 c 0,-0.0806 -0.07006,-0.18979 -0.155682,-0.24271 -0.08563,-0.0529 -0.155684,0.013 -0.155684,0.1465 0,0.13349 0.07006,0.24271 0.155684,0.24271 0.08563,0 0.155682,-0.0659 0.155682,-0.1465 z m 38.50834,-3.20552 c -0.04825,-0.12579 -0.153058,-0.22871 -0.232858,-0.22871 -0.0798,0 -0.0024,-0.15332 0.17234,-0.34072 0.174587,-0.1874 0.31743,-0.53769 0.31743,-0.77842 0,-0.39643 -0.05137,-0.43769 -0.544892,-0.43769 -0.511394,0 -0.544763,0.0311 -0.542768,0.50597 0.0029,0.731 0.159171,1.20655 0.396053,1.20655 0.113399,0 0.256171,0.0809 0.317266,0.17974 0.06883,0.11136 0.04272,0.13747 -0.06866,0.0686 -0.09985,-0.0617 -0.185197,-0.0205 -0.192028,0.0927 -0.0095,0.15673 -0.03042,0.15885 -0.09082,0.009 -0.133457,-0.33074 -0.363943,-0.21473 -0.363943,0.18319 0,0.51142 0.486727,0.59536 0.732765,0.12637 0.103325,-0.19696 0.148374,-0.46103 0.100107,-0.58682 z M 82.74784,104.73493 c 0.188245,-0.11911 0.19297,-0.23741 0.02942,-0.73711 -0.107132,-0.32738 -0.236283,-1.36549 -0.287004,-2.30691 -0.09875,-1.833018 -0.322484,-2.613169 -0.826799,-2.883073 -0.305345,-0.163413 -0.297442,-0.191321 0.239889,-0.847064 0.718497,-0.876833 0.876367,-1.463049 0.769771,-2.858336 -0.10239,-1.340306 -0.210728,-1.668451 -0.77043,-2.333621 -0.454924,-0.540643 -1.615453,-0.966994 -2.570621,-0.944382 -0.299689,0.0071 -1.22513,-0.0091 -2.056531,-0.03589 -0.831396,-0.02683 -1.550405,-0.01006 -1.597789,0.03731 -0.139942,0.139941 -0.215612,8.351026 -0.08573,9.302836 0.0655,0.48001 0.05813,1.36064 -0.01642,1.95694 -0.202126,1.61753 -0.184561,1.64028 1.266807,1.64028 0.810789,0 1.26772,-0.0659 1.349633,-0.19461 0.06811,-0.10703 0.124796,-1.25944 0.125949,-2.5609 0.0024,-2.557763 0.07341,-2.806591 0.730865,-2.556628 0.609759,0.231834 0.808318,0.925508 0.709912,2.480028 -0.05125,0.80947 -0.01341,1.63459 0.09409,2.05369 l 0.17976,0.70058 1.002693,0.0427 c 0.551482,0.0235 1.036051,0.076 1.076816,0.11676 0.114875,0.11488 0.388887,0.0836 0.63566,-0.0725 z m -4.331552,-7.702994 c -0.209168,-0.267391 -0.311064,-1.351503 -0.198712,-2.114119 0.09283,-0.6301 0.145667,-0.701292 0.525174,-0.7077 0.232075,-0.0041 0.471294,-0.05649 0.531594,-0.116764 0.224832,-0.224832 0.33247,-0.09198 0.447228,0.552018 0.174016,0.976521 0.147156,1.947064 -0.06082,2.197662 -0.233841,0.281761 -1.072267,0.409028 -1.24446,0.188903 z m 9.135899,7.716494 c 0.162154,-0.10285 0.19138,-1.39424 0.147043,-6.497406 l -0.05531,-6.369043 -0.769783,-0.104814 c -0.423379,-0.05766 -1.075533,-0.066 -1.449244,-0.01859 l -0.679468,0.08624 0.09962,2.431667 c 0.05478,1.337423 0.0975,4.232152 0.0949,6.432736 l -0.0047,4.00106 0.895938,0.0562 c 0.492764,0.0309 1.036056,0.0684 1.207307,0.0832 0.171251,0.0149 0.402438,-0.0307 0.513748,-0.10131 z m 4.827135,-5.8e-4 c 0.15427,-0.0978 0.191828,-0.61034 0.155688,-2.12431 -0.04954,-2.07627 0.10369,-2.58421 0.494824,-1.63994 0.107738,0.26011 0.257447,0.47293 0.332682,0.47293 0.07524,0 0.136799,0.13225 0.136799,0.29389 0,0.16163 0.199719,0.73961 0.443827,1.28439 0.244108,0.54477 0.515783,1.16769 0.603733,1.38424 0.153723,0.37854 0.211252,0.39357 1.489221,0.38921 0.73113,-0.002 1.383637,-0.0588 1.450022,-0.12521 0.148332,-0.14831 -0.113281,-0.896 -0.883835,-2.52595 -0.862134,-1.82366 -1.384772,-3.025866 -1.646403,-3.787129 -0.230363,-0.67027 -0.227627,-0.683527 0.57779,-2.802307 0.44508,-1.170867 0.975097,-2.459293 1.177805,-2.863173 0.202713,-0.403838 0.368563,-0.771636 0.368563,-0.817297 0,-0.04566 -0.654331,-0.08302 -1.454076,-0.08302 h -1.454075 l -0.176941,0.583816 c -0.09731,0.321096 -0.296454,1.039187 -0.442532,1.595759 -0.146079,0.556566 -0.388711,1.290314 -0.539185,1.630545 l -0.273588,0.618603 -0.173004,-0.455036 c -0.09628,-0.253223 -0.16086,-1.21807 -0.145626,-2.175444 l 0.02736,-1.720402 H 91.0667 89.685034 l 0.01753,0.934103 c 0.0097,0.513759 0.03189,3.438668 0.04949,6.499799 l 0.03195,5.565693 1.195969,-0.002 c 0.657779,-0.001 1.287461,-0.0604 1.399282,-0.13134 z m 1.976255,-2.51286 c -0.0529,-0.0856 -0.02201,-0.15569 0.06865,-0.15569 0.09068,0 0.164873,0.0701 0.164873,0.15569 0,0.0856 -0.03089,0.15568 -0.06866,0.15568 -0.03778,0 -0.111951,-0.07 -0.164867,-0.15568 z m -24.702123,2.06388 0.311093,-0.42707 0.34036,0.4327 c 0.333376,0.42382 0.369569,0.43178 1.764703,0.38814 l 1.424343,-0.0445 v -1.08548 -1.08548 l -0.700579,-0.12233 c -0.385315,-0.0673 -1.255322,-0.13927 -1.933342,-0.15999 -1.219388,-0.0373 -1.234434,-0.0427 -1.385579,-0.50472 -0.08404,-0.25687 -0.229874,-0.51852 -0.324067,-0.58142 -0.118483,-0.0791 -0.111286,-0.11512 0.02336,-0.11677 0.334723,-0.004 0.231957,-0.80018 -0.115011,-0.89092 -0.369816,-0.0967 -0.260354,-0.356932 0.150145,-0.356932 0.159065,0 0.315894,-0.08005 0.34851,-0.1779 0.03866,-0.116076 0.527422,-0.174858 1.406237,-0.169151 0.936556,0.0061 1.399042,-0.05402 1.517942,-0.197294 0.09877,-0.119 0.151421,-0.655907 0.124649,-1.270926 l -0.04637,-1.064877 -1.245466,-0.0065 C 70.629371,96.85395 69.989839,96.83638 69.893193,96.81856 69.584,96.76148 69.348942,95.925564 69.398286,95.058623 l 0.0479,-0.841292 1.712523,-0.07784 c 0.941887,-0.04284 1.800096,-0.134517 1.907128,-0.203791 0.405533,-0.262472 0.07951,-2.054384 -0.391693,-2.152878 -0.14848,-0.03107 -1.566032,-0.02142 -3.150111,0.02142 l -2.880154,0.07784 0.02636,1.478995 c 0.07478,4.193405 0.05867,8.172393 -0.0383,9.445423 -0.05979,0.78523 -0.06625,1.53835 -0.01436,1.6736 0.07568,0.19722 0.354705,0.2459 1.409573,0.2459 1.254587,0 1.329556,-0.0197 1.62631,-0.42707 z m -10.933236,-0.97575 c -0.0316,-0.61468 -0.09282,-0.69934 -0.425607,-0.58841 -0.117703,0.0392 -0.109608,0.25117 0.02701,0.70716 0.237352,0.79221 0.442283,0.73115 0.398599,-0.11875 z m 0.06162,-1.72924 c 0,-0.17126 -0.0656,-0.27083 -0.145776,-0.22128 -0.08018,0.0495 -0.135692,0.22398 -0.123366,0.38761 0.02922,0.38784 0.269142,0.23956 0.269142,-0.16633 z m -0.233524,-2.939618 c 0.05292,-0.08563 0.02202,-0.155682 -0.06865,-0.155682 -0.09068,0 -0.164872,0.07006 -0.164872,0.155682 0,0.08563 0.03089,0.155682 0.06865,0.155682 0.03776,0 0.111952,-0.07006 0.164872,-0.155682 z m 0.257507,-3.754139 -0.151584,-0.527163 -0.01404,0.692789 c -0.0099,0.489594 0.03454,0.644216 0.151584,0.52717 0.112757,-0.112758 0.117235,-0.333918 0.01406,-0.692796 z m 0.131704,-7.455088 c 0,-0.08563 -0.07419,-0.155688 -0.164872,-0.155688 -0.09068,0 -0.121575,0.07006 -0.06866,0.155688 0.0529,0.08562 0.127114,0.155682 0.164873,0.155682 0.03778,0 0.06866,-0.07006 0.06866,-0.155682 z m 23.780684,-8.358614 c -0.149845,-0.03913 -0.395048,-0.03913 -0.544892,0 -0.149845,0.03919 -0.02724,0.0712 0.272446,0.0712 0.299695,0 0.422296,-0.03207 0.272446,-0.0712 z M 65.20379,78.779265 c -0.107032,-0.04319 -0.282179,-0.04319 -0.389211,0 -0.107032,0.04319 -0.01948,0.07852 0.194605,0.07852 0.214064,0 0.301638,-0.03536 0.194606,-0.07852 z m 15.02348,47.165405 c 0.192657,-0.0371 0.507916,-0.0371 0.70058,0 0.192657,0.0371 0.03501,0.0675 -0.350293,0.0675 -0.385315,0 -0.542945,-0.0304 -0.350287,-0.0675 z M 61.545221,78.623577 c 0.107032,-0.04319 0.282178,-0.04319 0.38921,0 0.107032,0.04319 0.01948,0.07852 -0.194605,0.07852 -0.214064,0 -0.301637,-0.03536 -0.194605,-0.07852 z"
       id="path316" /></g></svg>
